<svg xmlns="http://www.w3.org/2000/svg" viewBox="0 0 100 125" x="0px" y="0px"><defs><style>.cls-1{fill-rule:evenodd;}</style></defs><path class="cls-1" d="M88.622,17.161c-.165-.091-.269-.226-.433-.317C88.281,16.591,88.91,16.8,88.622,17.161ZM83.245,28.055c.078-.329.441-.258.573-.511C83.322,27.3,82.771,27.816,83.245,28.055Zm-.276-6.985c-.249.122-.022.536.038.494C83.1,21.5,83.062,21.047,82.969,21.07ZM77.656,36.6c.065.4-.168.59.215.888C77.818,37.179,78.04,36.675,77.656,36.6Zm3.517-22.164a.283.283,0,0,0-.513.156C80.924,14.672,81.11,14.64,81.173,14.437ZM76.268,39.043c.137.041.232.256.355.06C76.486,39.062,76.391,38.847,76.268,39.043Zm-.218.571c-.175.115-.126.438.018.612.056-.164.228-.167.3-.315C76.2,39.854,76.2,39.682,76.05,39.614Zm-2.5,6.148c-.047.067-.37.405-.08.473C73.39,46,73.886,45.9,73.545,45.762Zm-2.516-3.105a.559.559,0,0,1-.334-.178l-.04.236C70.8,42.877,70.922,42.892,71.029,42.657Zm2.634-23.409c.175-.278-.311-.592-.434-.317C73.464,18.972,73.325,19.28,73.663,19.248Zm-.733.728a.332.332,0,0,0,.4-.177.564.564,0,0,1-.336-.178Zm-4.5,27.231-.237-.04-.04.236.237.04ZM69.659,12c.145-.226-.217-.583-.315-.3C69.529,11.742,69.385,12.017,69.659,12Zm-.707-.85c.083.045.066.352.314.3.011-.389-.064-.717-.61-.711a.555.555,0,0,0,.157.513C68.775,11.2,68.885,11.11,68.952,11.146Zm-.892.944c-.075-.239.422-.335.081-.473C68.094,11.684,67.77,12.023,68.06,12.09ZM62.224,31.427a.665.665,0,0,1,.453.2l.06-.355C62.473,31.191,62.288,31.223,62.224,31.427Zm-.018-.612c-.427.337.376.433,0,0ZM65,11.45c.375-.059.355-.673.536-1-.247.056-.2-.278-.315-.3-.05-.008-.21.328-.394.176.02-.188.085-.408-.177-.395C64.771,10.437,64.449,11.255,65,11.45ZM61.869,31.366c.01-.226-.206.034-.217-.158-.174-.12.125-.575-.274-.534-.191-.052-.318.7-.12.71.224-.285.19.479.669.357C61.932,31.6,62,31.409,61.869,31.366Zm1.99-19.624c.032-.15.18-.137.18-.334C63.778,11.174,63.622,11.75,63.859,11.742ZM59.552,27.808c-.432-.119-.8-.155-.889.215.353-.065.527-.049.413.435C59.44,28.531,59.49,28.16,59.552,27.808ZM61.242,9.96c.117-.362-.242-.385-.394-.554C60.729,9.767,61.089,9.79,61.242,9.96ZM57.8,12.3a.33.33,0,0,0,.176.395A.331.331,0,0,0,57.8,12.3Zm-5.28,24.665c.3.135.27-.206.415-.3C52.633,36.531,52.666,36.872,52.522,36.962ZM52.148,9.755l-.237-.04c-.014.079-.027.158-.04.237l.236.04C52.121,9.913,52.134,9.834,52.148,9.755Zm-1.191,1.99c.2.278.241-.014.494-.039.065-.321-.157-.271.08-.473a1.079,1.079,0,0,0-.968.688C50.789,12,50.824,11.8,50.957,11.745Zm-.481,2.839c-.164-.057-.167-.229-.315-.3C50.016,14.513,50.377,14.87,50.476,14.584ZM46.251,35.9c-.07.292.119.4.275.533C46.612,36.127,46.569,35.915,46.251,35.9Zm4.017-24.392c-.01.18-.117.429.038.493C50.486,11.868,50.537,11.585,50.268,11.506Zm-.4,2.366c-.144-.2-.428-.252-.4.176A.331.331,0,0,0,49.866,13.872ZM42.594,45.258l-.04.236c-.006.073-.006.143.1.139.019-.071.041-.138.139-.1.01.1-.037.234.077.257C42.954,45.487,42.912,45.275,42.594,45.258Zm-1.345-5.706c-.665-.241-.136.505,0,0ZM33.205,58.27c.444.065.36-.075.71.121a.611.611,0,0,0,.1-.592C33.675,57.858,33.191,57.713,33.205,58.27Zm.016,1.342c.3.038.612.081.652-.255A.511.511,0,0,0,33.221,59.612ZM34.2,49.553c.306.09.347-.2.435-.412C34.326,49.052,34.285,49.336,34.2,49.553Zm.063-1.084c.427-.338-.377-.433,0,0ZM30.545,63.905c-.145.226.216.583.315.3C30.7,64.145,30.693,63.973,30.545,63.905Zm.744-11.559c-.013.322.243.453.511.574C31.834,52.584,31.68,52.381,31.289,52.346Zm-1.074,2.739c.035-.2.34-.01.4-.176-.088-.041-.121-.122-.079-.257C30.255,54.477,29.941,54.963,30.215,55.085Zm-2.123,4.63c.07-.292-.12-.4-.275-.533C27.731,59.486,27.773,59.7,28.092,59.715Zm-.219.572c.1-.277-.172-.294-.018-.612a.559.559,0,0,1-.335-.178c-.107.111-.554.466-.239.69C27.344,59.663,27.706,60.245,27.873,60.287ZM20.938,91.121c-.363-.119-.367.266-.653.255-.219.033-.67-.261-.729,0,.238.073-.061.528.274.533a.852.852,0,0,1,.3-.315c.216.263.089.769.451.929.154-.318-.114-.335-.018-.612.15.055.087-.157.159-.216s.335.072.276-.2C20.861,91.453,20.9,91.287,20.938,91.121Zm-.828-.14c.407.135.361-.37.769-.235-.014.126.136.119.139-.1C20.545,90.52,20.186,90.552,20.11,90.981Zm-.217-.159c-.22-.176-.6.09-.277.2C19.643,90.863,19.841,90.946,19.893,90.822ZM88.317,20.4c.071.019.137.042.1.139-.065-.012-.151.073-.02.118C88.65,20.588,88.528,20.056,88.317,20.4Zm-.1.592c-.33-.307-.168.055-.179.335a1.02,1.02,0,0,1-.69-.239c-.363-.122-.144.58-.554.393-.026.158-.053.316-.08.473-.023.31.232-.128.474.081-.281.254-.637.578-.141.828-.318.36-.351-.014-.71-.121-.077.333.361.3.116.75.115-.034.23-.068.277-.2.27.2-.222.552-.554.393,0,.175.346.1.315.3.009.209-.13.208-.276.2-.134.008-.121.222-.277.2,0,.142.2.136.334.178-.042.134-.009.215.079.257-.085.271-.411.2-.553.393-.144.035-.032-.234-.079-.257-.276-.137-.509.341-.888.215-.058.5-.287.525-.16.946a.676.676,0,0,1-.494.038.678.678,0,0,1,.038.493c-.452.009-.224-.464-.373-.671-.342-.035-.648-.1-.531-.456.351-.041.278.219.571.219.115-.035.229-.068.277-.2,0-.214-.188.061-.355-.06-.041-.029-.009-.328-.058-.375-.1-.093-.118.1-.138.1-.176.006-.105-.2-.474-.08-.054.531.132,1.2-.555,1.123-.033.2-.067.394-.1.592.2.26.437-.162.513-.157.16.011.008.2.078.257.174.154.319-.076.611-.018.027.277-.361.057-.414.3-.037.16-.335.043-.494.038-.126.19.038.3.058.375a2.208,2.208,0,0,0,.058.374c.078.115.388.076.315.3.17.018.339.037.335.178.475.043-.063-.433.415-.295-.02.215-.187.226-.2.453-.389.006-.328-.284-.591-.1-.158.389.455.232.254.652-.162-.179-.139-.1-.374.058-.2.132-.52.272-.574.511-.2,0-.184-.146-.335-.178.213.376-.218.564-.042.966-.336,0-.037-.46-.275-.533-.464.141.154.362.018.612l-.355-.061c-.1.243.131.254.315.3-.022.262-.161.36-.415.295.223.3-.167.387-.141.828-.171.037-.428-.16-.591-.1-.214.078-.316.984-.277.2-.405.212-.871.336-1.009.924a.587.587,0,0,0-.709-.12c-.028.23.5-.127.432.317.1-.152.459.059.513-.157.3.063.206.489.018.612-.137.043-.038-.243-.078-.257-.142-.049-.083.176-.158.217-.159.087-.5-.072-.612.018a.565.565,0,0,1,.059.375c.278.05.383-.145.729,0-.007.163-.71.037-.3.315-.075.237-.357.182-.534.274-.029.176.143.039.119.02.331.251-.165.16-.1.592-.7-.219-.587.495-.732.728-.17-.019-.339-.037-.335-.179-.275-.1-.026.55-.415.295-.141.308.195.278.156.514q-.069.413-.14.827c.022.185.159-.021.355.061-.036.3.163.408-.2.453.188.313-.053.126-.179.335-.229-.049.335-.464-.3-.415-.167.009-.149.279-.2.453a.867.867,0,0,0,.315.3c-.309.332-.6-.162-.77.234-.216-.055-.005-.413-.156-.513l-.474-.081c-.184.022.021.16-.06.355-.179.116-.194.015-.354-.06.006.1.1.138.078.257.331.077.3-.361.75-.116,0,.213-.065.281-.179.334.02-.01-.357.06-.257.079-.1-.019-.094-.155-.216-.159-.24-.007-.386.163-.612.018-.03.4.48.423.886.515.165.1-.037.259-.04.237.013.083.2.255.2.277,0,.157-.319.329-.08.473-.029.264-.489-.077-.632.137-.221.328.061.157-.375.058-.122.233.067.334.038.493-.05.272-.271.232-.337.552.419.2.262-.413.651-.255a.618.618,0,0,1-.593.629c-.147.347.048.452,0,.73-.244.3-.588-.375-.848-.022.041.157.472-.01.274.533a.788.788,0,0,1,.612-.018c-.046.3-.112.13-.257.079-.213-.007-.3.158-.317.433-.273.02-.13-.255-.315-.3-.587-.242-.263.8-.732.728.057.133.252.168.177.4.109.115.245-.082.257-.078.143.048.114.222.2.277.119.079.1-.1.137-.1.079,0,.3.316.355.06.384.1-.307.593-.277.2-.133.057-.168.251-.395.176-.023.043.255.531-.08.473-.317-.053.012.233-.081.474-.409-.187-.189.515-.553.393-.023.455-.327.515-.5.768-.337.031-.2-.276-.432-.317.117.24-.208.579-.042.966-.3-.037-.405.16-.592-.1.011.234-.043.516.275.533-.023.262-.16.36-.416.3-.031.173.436.46-.06.355.054.341.4-.1.71.121.058.375-.3.164-.513.156a2.045,2.045,0,0,0,.275.534c.011.319-.211.188-.318.433-.017.04,0,.215-.04.236s-.548-.426-.375.058c-.166-.038-.332-.076-.374.058-.136-.042-.064-.233-.059-.375.025-.226-.377-.148-.3-.415-.114,0-.216.287-.2.453,0,.047.2.255.2.277,0,.065-.149.2-.178.335-.046.21.126.4.018.612-.577.062-.329-.46-.906-.4.115.2.421.256.531.455l-.18,1.065c-.351.045-.551.3-1.008.2.051-.369.43-.275.377-.788l-.236-.041c-.138,0-.086.108-.02.119-.137.1-.274.2-.415.294a.331.331,0,0,1-.4.177c.15-.349-.286-.282-.137-.632.257-.03.48-.107.456-.531-.125-.189-.5-.446-.591-.1-.043-.09-.215-.267-.177-.4.059-.206.185-.132.317-.432.021-.049.144-.128.138-.1.018-.094-.139-.221-.058-.375.037-.07.389-.037.316-.433-.242-.1-.252.131-.3.315-.259.1-.142-.246-.2-.277-.181-.1-.3.142-.494.038-.078-.268.22-.13.277-.2.206-.238.086-.426.12-.71.233.1.7.084.77-.235.036-.161.178,0,.257-.078s-.089-.154-.1-.139c.2-.317.629-.378.732-.727a.121.121,0,0,0-.236-.04c-.15-.079.011-.106.04-.237-.008.034-.181-.093-.1-.138.256-.142.063-.46.358-.67.315-.224-.248-.087-.018-.611a2.6,2.6,0,0,1,.2-.454c.17-.2.525-.064.337-.551.32.434.2-.583.77-.235q.1-.381-.3-.415c-.024-.376.263-.313.239-.689.132.168.178.077.355.06l.081-.473c.29.067.4-.124.631-.137q.051-.3.1-.591a.612.612,0,0,0,.416-.3c.376.042.72.036.79-.353-.194-.077-.239.055-.277.2a2.294,2.294,0,0,1-.63-.593c-.268.166-.231-.129-.432-.317-.2-.064-.236-.249-.157-.513.354-.04.709-.076.712-.61.4-.244.7.138.888-.214-.265-.426-.688-.122-.886-.516a1.591,1.591,0,0,1,.868-.1c.078-.127-.206-.1-.216-.159-.035-.184.161-.2.178-.334s-.182-.192-.2-.277c-.011-.063.322-.306.06-.355.238-.1.13-.256.337-.551a2.641,2.641,0,0,1,.256-.078c.028-.081-.147-.233-.058-.376.395.374.613-.542.773-.964.214.021.225.187.453.2.1-.242-.131-.253-.314-.3.017-.225.065-.462.316-.433.175.02.138-.267.317-.433a.747.747,0,0,0,.591.1,1.018,1.018,0,0,0,0-.73c-.222-.019-.141.388-.317.433-.115-.022-.068-.16-.078-.256a.678.678,0,0,1-.493.038c.145-.284.537-.219.79-.353-.184-.246.092-.361.316-.434-.056-.133-.251-.168-.176-.394.464.509.75-.244.949-.57.672-.06.511.469,1,.536.118-.362-.241-.384-.393-.554-.044-.107.146-.381.08-.473,0-.006-.119-.016-.118-.02.017-.1.379-.466-.156-.513.219-.718.8-.929,1.306-1.239-.147-.441.112-.566.18-1.065.293.07.4-.119.533-.275a2.487,2.487,0,0,1,.181-1.064c-.109-.166-.3-.273-.136-.632.134.042.215.009.257-.079.324.044.205.238.473.081.217.078.186-.249.3-.315.047-.028.2.074.236.04s0-.211.04-.237c.179-.1.085-.277.239-.689.014-.037.25-.059.257-.078.12-.331.07-.689.181-1.065.22.066.181-.233.3-.315s.387.056.394-.177c-.032-.309-.353.166-.611.019-.028-.333.283-.188.415-.295.092-.239-.028-.327-.038-.493a.329.329,0,0,0-.3.314c-.293,0-.22-.259-.571-.218-.167.009-.148.279-.2.452l-.473-.08c.068-.148.239-.15.3-.314a3.027,3.027,0,0,0-.987.076c-.136-.041-.09.161-.158.216s-.329-.054-.277.2c-.568-.033-.762-.014-1.025-.418a2.917,2.917,0,0,1-.691.492l-.593-.1a.608.608,0,0,0-.414.3c-.29-.192-.736.108-.711-.121-.136-.058-.089.183-.157.217-.2.1-.691-.067-.673.373-.378-.416-.7.252-.968.688-.264-.079-.45-.047-.513.156a.841.841,0,0,1-.177-.395c-.328.221-1.037-.125-.534.275-.118.049-.518.414-.512.156a.851.851,0,0,0-.3.314c-.156-.212-.688.057-.787-.376-.185.021.02.159-.061.354-.009.285.549.166.393.554a.345.345,0,0,0-.632.136c-.148-.068-.15-.24-.315-.3a.68.68,0,0,0-.731.729c-.128.2-.115-.093-.078-.257q-.383-.1-.416.294c-.164-.091-.268-.225-.433-.317,0,.075.146.254.058.375-.05.069-.148-.129-.1-.138-.091.017-.468.483-.671.373.026-.158.053-.316.08-.473-.276-.1-.026.55-.415.295.015.51-.325.519-.4.906-.161-.094-.635.034-.571-.219-.112.059-.465.49-.219.572-.046.13-.13.045-.118-.02-.141,0-.207-.062-.217-.159a.332.332,0,0,0-.3.315c-.171-.255-.371-.032-.513.156.115.4.569-.261.71.121-.092.164-.226.268-.317.433-.262-.342-.824.175-.65-.476-.544.065-.72.648-1.029,1.043-.237-.349-.294.206-.729,0-.143-.005-.137.2-.179.335a.331.331,0,0,1-.177-.395c-.141,0-.136.2-.178.334-.093-.09-.187-.179-.237-.04-.216-.194-.012-.685-.352-.79-.31-.023.128.231-.081.473a.673.673,0,0,1-.493.038c-.005.189.361.63,0,.73.086.32.4.476.333.909-.4-.172-.442.116-.159.216-.168.268-.484-.321-.534.275-.114-.023-.067-.161-.077-.256-.034-.255-.593-.136-.393-.555-.362-.118-.384.241-.554.394a.573.573,0,0,0-.77.234c-.09.395.356.154.453.2.278.126.331.36.65.475-.221.249-.288.178-.219.572-.092-.025-.1-.157-.217-.159-.161,0-.06.147-.158.216-.115.082-.386-.055-.4.177-.1.005-.1-.065-.1-.138-.172.051-.264.215-.317.433-.393-.166-.537.136-.71-.121-.133.057-.168.251-.395.177a.784.784,0,0,1-.219.571c-.267-.1-.3-.2-.611.018-.075.054-.109-.037-.139.1-.036.159-.348.091-.631.137-.017.115.129.116.216.158-.031.224-.251.1-.4.177a1.4,1.4,0,0,0-.614.747c-.323-.457-.337.27-.75.117.02-.119.041-.237.061-.356-.42-.2-.263.412-.653.255.122-.5-.61-.227-.808-.259-.143.019-.335.158-.157.217-.129.117-.319-.129-.318.433-.325.121-.513.208-.848-.022-.251-.012-.121.514-.337.551-.279-.01-.074-.364-.3-.415-.364-.122-.143.58-.553.393q.313-.847-.59-.83c.007.273.529.411.492.692-.036.265-.213.135-.3.314.009.237.54.1.275.534a2.887,2.887,0,0,1-.61-.712c-.1.006-.138.1-.257.078a1.034,1.034,0,0,0,.708.85c.172-.051.263-.215.316-.433.256-.008.3.134.454.2.367-.018-.071-.272.08-.473.156.132.442.172.275.533.056.133.251.169.176.395-.123-.157-.225-.144-.256.079-.078-.119-.313-.126-.315-.3-.447.1-.3.6-.5.768-.3-.03-.34-.244-.413-.435-.18.089-.291.276-.436.413-.2-.3-.348,0-.71-.12.342-.318-.148-.742-.313-1.027a.857.857,0,0,0-.3.315c-.058.137.181.089.216.158.084.163-.174.486.156.514-.189.041-.049.255-.04.236-.148.284-.374.156-.357.67.134-.057.169-.251.4-.176-.162.538.041.741-.18,1.065-.336.029.179-.544-.157-.514-.332-.078.012.8-.454.531.14.2.026.391-.3.315a.776.776,0,0,0-.018-.611c-.252-.064-.125.41-.218.571-.276.034-.128-.272-.315-.3-.14-.019-.2.294-.3.315-.2.041-.234-.234-.453-.2-.253.035-.172.54-.455.531-.262.013-.2-.207-.176-.395-.363-.118-.367.266-.653.255.008.133.222.12.2.277,0,.2-.146.185-.179.335-.3-.137-.139-.595-.352-.79a.607.607,0,0,0-.416.294c-.18.511.685.277.334.909.282-.042.335-.407.671-.373-.009-.209.13-.207.277-.2-.068.148-.24.15-.3.314.587.339.2-.692.79-.353.01.209-.131.208-.276.2.13.125.358.7.531.455.3.08-.2.176-.081.473-.208.01-.207-.13-.2-.277-.18-.056-.086.268-.179.336-.111.081-.423-.1-.493.037.057.134.251.169.177.4l-.355-.06c.008.255-.134.3-.2.453.057.133.252.168.177.4a.674.674,0,0,0-.454-.2c-.021.189-.133.442.038.493-.274.261-.395-.179-.729,0-.222-.019-.141.388-.318.433.044.367.224-.244.494-.038-.057.36-.465.225-.77.235-.072-.4.234-.256.317-.434-.056-.382-.339.083-.493.039-.071.292.118.4.274.533a.776.776,0,0,0-.218.572c-.46.014-.348-.378-.512-.574-.254.022-.123.555-.4.177-.086.3-.044.516.275.533-.023.115-.16.067-.257.078,0,.141-.062.206-.159.217.2.346-.222.652-.022.848a.529.529,0,0,1-.513.156c.19.49-.552.732-.694,1.221-.4.038-.335-.248-.551-.337.136.109.089.377.156.514a.237.237,0,0,0,.216.158.8.8,0,0,1-.83.59c.008.255-.134.3-.2.453a.562.562,0,0,0-.335-.179c-.036.3.16.4-.1.592-.294,0-.22-.26-.571-.219-.332-.028-.156.66-.574.511-.154.318.115.335.019.612.033.254.591.135.392.554-.263.183-.3-.038-.591-.1-.118.2.081.427.018.612-.039.11-.334-.005-.375.058-.03.044.125.328.038.493-.043.079-.313.128-.4.176-.1.277.173.294.018.612a.672.672,0,0,1-.493.038c-.066.321.157.272-.081.474-.129-.291-.282.056-.374.057-.158,0-.272-.3-.474-.08a3.384,3.384,0,0,1,.175,1.125c-.286-.191-.571.279-.453-.2-.248-.005-.287.281-.534.275.03.222-.022.5.137.632-.34.255-.769.383-1.087.668-.149.233.145.187.2.276.076.136-.051.371.176.4-.163.42-.7.488-.14.828-.275.262-.4-.179-.73,0-.133.056-.169.251-.395.176-.208.342.3.976-.279.926-.211.358.367.156.156.513-.3-.135-.269.206-.415.295A.559.559,0,0,0,32.2,59.2c-.332.11-.15.72-.16.946.272-.057.278-.486.475-.65.511-.015.52.325.907.4q-.06.354-.121.71c-.418-.149-.506.166-.574.511-.435-.174-.5.174-.671.373-.079.193.053.239.2.277.117.3-.381.393-.081.473-.045.13-.129.045-.118-.02-.39.253-.342.361-.5.768-.2,0-.185-.147-.335-.179a2.381,2.381,0,0,1-.672.373c-.014.664-.482.689-.772.964-.019.222.388.141.433.317-.032.3-.075.578-.337.552.093.177.037.459.275.533-.053.146-.38.095-.355-.06-.162.015-.221.177-.395.176.345.4.137.617.174,1.125-.235-.038-.205.3-.513.156-.1.278.172.3.018.612-.234-.087-.279.1-.395.177-.029.019-.27.195-.277.2-.066.014-.351-.428-.376.058-.291-.063-.328-.283-.591-.1-.05.278.145.383,0,.73.335.179.255-.228.317-.433.332.231.378.019.808.258-.06.512-.475.416-.279.927-.208.009-.207-.13-.2-.277-.49.217-.064.812-.437,1.143-.291-.067.033-.407.08-.474-.062-.349-.452-.232-.689-.238.274.221,0,.834.451.929.061.2-.375.131-.395.176-.036.075.4.524-.219.571-.161.013-.336-.115-.374.059-.031.137-.242.061-.375.058s-.137.2-.179.334a2.735,2.735,0,0,0-.75.117c-.12.361.265.366.254.651.3-.072.451-.342.5-.768.478.008.479.354.491.692-.3-.038-.451.147-.652.255,0,.142.2.136.334.178-.081.27-.39.5.157.514-.106.114-.139.266-.3.314.08-.024-.058-.139-.1-.137.088,0-.179.144-.139.1-.066.077.2.277.2.277-.057.158-.171-.006-.256.079-.046.045.007.193-.04.236s-.236.046-.257.078c-.036.054.006.193-.04.237-.171.164-.5.2-.574.511-.09-.2-.865.069-.77.234,0,0,.2.085.1.139-.182.1-.016.124.078.257.239.336.119.372-.239.689-.083.182.374.472.454.2a1.162,1.162,0,0,1-.062,1.085c-.143.167-.317.011-.2.453-.269.157-.149-.036-.474-.08.178.441.151.774-.377.788.019.3,0,.626.374.672-.1.081-.239.292-.061.355a.33.33,0,0,1-.395.176c0,.141-.062.206-.159.216.213.36-.278.573-.022.849,0,.374-.294.025-.374.058-.179.073-.05.191-.179.335-.03.033-.2-.07-.237-.04-.1.084-.071.27-.178.335.349.149.282-.287.631-.137-.038.236.3.2.156.514-.317-.155-.334.114-.611.017-.087.652-.444.7-.339,1.282.21.051.274-.1.493-.038.072.492-.376.252-.553.393a.607.607,0,0,0-.416.294c.007.1.1.139.079.257.134.069.094-.2.158-.216.205-.07.33.4.474.08.162.081-.03.1-.04.237-.073.405.328.379.017.611-.091.069.03.268.078.257.034.145-.23.03-.256.078-.29.541-.17,1.268-.439,1.873-.008.018-.213-.051-.237-.04.338.811.24,2.361-.482,2.839-.043.134-.01.215.078.257-.33.265-.813-.122-.986.076-.256-.094.014-.644.12-.71-.018-.143-.158-.335-.217-.158-.273-.084-.15-.448-.531-.455-.211.357.367.155.156.513.245-.183.414.055.3.415-.194-.259-.069-.4-.433-.317-.264.058-.136.332-.355-.06-.1.006-.138.1-.257.078-.039.306.409.265.532.456-.029.246-.338.031-.514.156-.029.02-.008.229-.04.236-.08.017-.107-.183-.217-.158-.141-.005-.135.2-.178.334-.135-.042-.216-.009-.256.079-.426-.368.241-.663.515-.886-.054-.057-.078-.605-.2-.277-.286-.1.071-.46.3-.315.048-.215-.353-.084-.453-.2.008.009.2-.284.061-.355a2.231,2.231,0,0,1-.927-.279.976.976,0,0,1,.358-.669c-.042-.416-.211-.1-.572-.219.23-.163.531-.229.593-.63l.237.04c.154-.317-.115-.334-.018-.611.433-.225.308-.929.359-1.4.021-.2.157-.181.178-.335.04-.293-.07-.583.022-.848.529.011.58-.649.989-.806a.566.566,0,0,1-.057-.375,3.027,3.027,0,0,1-.2-.276c-.065-.075-.137-.219-.2-.277-.125-.122-.456,0-.314-.3.142-.073.2.158.216.159.352.01.112-.444.554-.393l.06-.356c.029-.172-.231-.095-.335-.178-.143-.114-.07-.391-.294-.415-.032-.146.227-.028.256-.079.093-.157-.395-.143-.038-.492-.021-.185-.159.02-.355-.06.388-.288-.336-.374-.1-.869a.78.78,0,0,0,.611-.018c-.034-.114-.068-.229-.2-.277.207-.137.584-.351.75-.116a2.742,2.742,0,0,1-.116-.75c.134-.064.31-.061.514-.156.047-.023.118-.206.157-.217s.21.068.237.04c.07-.069,0-.276.06-.354.145-.034.031.231.079.256.241.128.325-.427.1-.592-.332-.054.227.371-.277.2.011-.283-.148-.528.121-.71.038-.235-.3-.2-.156-.513-.1-.039-.12.027-.139.1-.165-.056.019-.36-.176-.395a1.735,1.735,0,0,1,.732-.728c.025-.229-.42.072-.71-.12.11-.236.351-.288.357-.67-.236.009-.1.54-.534.275.342-.272.179-.4.4-.907a.329.329,0,0,1,.315.3c.137.061.465-.273.178-.335.181-.345.151.29.315.3.253.064.125-.41.218-.571.1.07.2.14.2.276.513-.206.7-.866.971-1.418-.21-.05-.274.1-.493.039-.147-.007-.188.284-.3.315-.18.05-.471-.1-.257.078,0,.246-.338-.082-.335-.179a.328.328,0,0,0-.176-.4c.116-.227.566.016.651-.254.037-.292-.386-.092-.375.058-.165.032.048-.6.317-.433-.1-.193-.078-.311.179-.335.017-.116-.129-.116-.217-.159-.017-.241.608-.289.612-.018.136.062.091-.186.159-.216.169-.077.475.162.611-.018-.021-.278-.209.112-.335-.179a.837.837,0,0,0,.12-.71c.028.134.246.085.335.179.031.032.051.24.079.257.066.04.174-.054.138-.1.093.114.037.315.176.394.367-.017-.07-.271.08-.473.173-.051.264-.215.317-.433-.13-.3-.258-.229-.571-.219.035-.39.237-.545.574-.51a.854.854,0,0,0-.315-.3c.043-.134.01-.214-.078-.256,0-.294.259-.221.219-.572.254.065.393-.033.415-.3,0-.141-.2-.136-.335-.178-.076-.239.421-.335.08-.473.07-.159.21.025.216.158.4-.072.337-.8.851-.707a.345.345,0,0,1,.337-.552c.05-.278-.145-.383,0-.73.433.269.128-.5.435-.413-.292-.278.045-1-.549-1.067a1.077,1.077,0,0,1,.554-.392c.018-.17.036-.339.178-.336.551,0-.236.3.315.3-.092.165-.226.269-.317.433.358.065.366-.365.475-.649.209-.01.208.13.2.277.385-.019.208-.29.219-.572.185.066.222-.077.374-.058-.018-.368-.271.07-.473-.08-.031-.186-.124-.328-.156-.514a.122.122,0,0,0-.04.237c-.178.343-.293-.19-.454-.2.064-.12.234-.045.277-.2.089-.3-.19-.994.4-.907.008.256-.134.3-.2.453.3.418.8-.05.848.023a.745.745,0,0,1-.02.118c.675-.317.47-1.327,1.13-1.634.216-.072-.267-.382-.019-.612.084-.077.079.258.079.257a3.912,3.912,0,0,0,.395-.176c.065-.166-.287-.256-.275-.534,0-.133.121-.229.317-.433.173-.18.283-.408.77-.234-.178-.325.087-.964.123-1.44a1.249,1.249,0,0,0,.812-1.2l.355.06c-.152-.17-.108-.478-.255-.651a.332.332,0,0,1,.4-.177,2.3,2.3,0,0,0,.022-.848c.006-.01.236.046.237.04.011-.179-.247-.222-.157-.513.166.038.332.076.374-.059.28.011.074.365.3.415.186.066.222-.077.375-.058-.071-.192-.353-.235-.552-.337.447-.339.3-.728-.214-.888.055-.216.413,0,.513-.156.091-.377-.124-.536.042-.967.134.043.215.01.257-.078.2.122-.019.218-.06.355.056.133.252.169.177.395a5.3,5.3,0,0,0,.573-.511.122.122,0,0,0-.237-.041c-.45-.455.784-.538.4-.906.016-.32.645.224.534-.274.224-.083.264.287.314.3.286.054.431-.41.713-.609.048-.693-.351-1.069-.173-1.855a.675.675,0,0,1,.494-.038c.184-.68-.189-1.054.142-1.558.018-.027.2.058.237.04.052-.209-.1-.274-.038-.493.256-.044.531-.292.73,0,.033-.2.067-.394.1-.592.246.047.356-.074.514-.156.18-.093.29-.318.533-.275.006-.382.408-.206.357-.669.239.091.327-.028.493-.038.152-.188-.183-.34-.176-.395s.267-.243.276-.2c-.019-.095-.379-.146-.432-.317-.009-.029.178-.213.178-.335,0-.009-.109-.045-.1-.138.015-.127.26-.2.219-.571.114.022.067.16.078.256.29-.028.73.043.83-.589.2.237.152.014.474.08.175.035.092-.238.178-.335.028-.031.2.06.236.04.077-.037.088-.306.179-.335.132-.107.442.038.416-.294.293,0,.22.26.571.219.4-.021.065-.561.513-.157.193-.07.236-.352.337-.551a.856.856,0,0,0-.314-.3c-.053-.126.127-.075.138-.1.056-.126-.191-.215-.2-.277a2.313,2.313,0,0,1,.061-.355c.014-.212-.077-.273-.039-.493,0,.027.124-.035.139-.1.052-.232.048-.375.3-.314.022-.189.133-.442-.038-.494.064-.154.312-.048.493-.038.048-.437-.085-.481.14-.828.335.081.644.124.653-.254.148.067.15.239.314.3.264.03.135-.493.239-.689a2.04,2.04,0,0,1,.846.751c.114-.034.229-.067.277-.2-.085-.151-.266-.037-.433-.317.1-.668-.019-.535.081-1.2a.569.569,0,0,1,.376-.058c.065-.4.134-.789.594-.63a.554.554,0,0,1-.058-.375c.3-.256.41.378.709.121.026-.226-.377-.148-.3-.415.077-.43.437-.461.909-.333.154-.318-.114-.335-.018-.612a.678.678,0,0,1,.493-.038.654.654,0,0,1,.337-.551c.049-.026.13.179.217.158.211-.049.57-.629.929-.451a.9.9,0,0,1,.1-.591c.024-.032.2.065.237.04s0-.213.04-.237.2.074.236.04.227-.559.317-.433c.1.143.069.067.138-.1.308.094.347.378.374.672-.055.181.263.086.334.179.033.043-.064.185-.04.236.128.276.507.461.749.614.046-.137-.169-.089-.217-.158.024.035-.082-.347-.078-.257-.009-.185.492-.671.022-.848.072-.241.525.056.631-.137.176-.472-.529-.318-.352-.79.246-.184.337.11.571.219a.844.844,0,0,1,.12-.71l.592.1c.353.093.237-.705.533-.274.034-.2.067-.394.1-.592.419.2.424-.184.652-.254.337-.061.1.271.176.395s.313.124.315.3c.45-.012.01-.364.337-.551.016-.115-.129-.116-.217-.158.021-.215.187-.226.2-.453.318.016.263.3.275.533.318.106.185-.422.434-.413.3-.13.183.372.295.415s.354-.206.159-.216c.015-.321.644.222.533-.275.149-.012.025.2.078.257.032.031.3-.173.237.04.3-.17.178-.923.438-1.143.249.169.7.2.905.4-.141.193-.38.245-.356.67a1,1,0,0,0,.613-.748c.537,0,.42.465.748.613.793.018.834-.672.853-1.437-.465-.1.007.188-.3.314-.367.079-.224-.3-.3-.415a1.7,1.7,0,0,0-.413-.435c.023-.26.429.018.611-.018.137-.12-.049-.391-.058-.375.088-.184.372-.1.416-.294s.41,0,.435-.414c.5.213.456-.334.889-.214.026-.157.053-.315.08-.473.323-.036.785-.316,1.085.062.263.03.135-.493.239-.689a.865.865,0,0,0,.3-.315c.2.059.341-.15.355.06.294-.221.5-.565,1.047-.431l-.081.473c.181.057.087-.267.179-.334.121-.089.379.07.493-.039s.022-.775.456-.531c.147-.347-.146-.383,0-.73l.71.12c.253.064.124-.41.218-.571.324-.239.285.238.552.337-.013-.234-.3-.272-.137-.632.141,0,.207.062.217.159a1.735,1.735,0,0,0,.732-.728.571.571,0,0,0,.335.179c.178.042.089-.249.179-.335.178-.173.665.009.671-.373.2,0,.185.146.335.178.264-.09.177-.386.338-.551.093-.1.356-.006.394-.176.029-.129.266-.037.277-.2a.608.608,0,0,1,.3.415c.255-.079.54-.118.671-.373.428.112.868-.2,1.085.063-.132.217-.486.355-.632.136-.137.632.7.11.867.634.267.082.189-.32.415-.295.381.007.259.371.532.455.288-.033.194-.605.671-.373-.011-.442-.309-.682-.292-1.145.337-.031.2.276.433.317.175,0,.1-.346.3-.314-.285-.326.071-.46-.235-.771.262-.32.452-.058.848.022a.607.607,0,0,0,.416-.294c-.188-.441-.571.063-.849-.022-.032-.522-.749.046-.649-.476-.135-.066-.094.192-.159.217-.17.064-.3-.252-.592-.1-.352-.062-.35-.376-.649-.476-.338.061-.651.158-1.007.2-.24-.29-.592.151-.551-.338a4.128,4.128,0,0,0-1.578-.024c-.051-.238-.34-.142-.059-.375-.254-.065-.393.033-.415.3-.282.036-.243-.27-.433-.317-.476-.117-.975.288-1.3.509a.679.679,0,0,0-.453-.2.842.842,0,0,0,.12-.709c-.17.151-.479.108-.652.254-.195-.145-.01-.32-.453-.2-.227.062-.31.258-.514.156l.081-.473c-.3-.136-.27.206-.415.295-.389-.2-1.488-.085-1.714-.656-.61.217-.891-.064-1.46-.005.045-.483-.538-.01-.512-.573-.169.152-.478.108-.651.254-.262-.127-.251-.447-.511-.574-.465.113.244.224.037.494-.114.034-.229.068-.276.2-.124.109-.511-.47-.808-.258-.231.162-.041-.134-.454-.2-.016.115.129.116.217.158-.155.429-.379-.154-.534.275-.2-.3-.347,0-.709-.121l.06-.354c-.33.023-.508.262-.79.352-.393.094-.6-.461-.828-.14-.378-.114-.21-.615-.333-.908a.837.837,0,0,0-.259.807c-.277-.1-.294.173-.611.019,0-.217.152-.224.138-.1.339-.052-.226-.31-.157-.513-.2.156-.633-.011-.672.373-.171-.258-.369.082-.571-.219-.192.071-.236.352-.337.551-.114-.022-.067-.16-.078-.256-.358-.211-.155.367-.513.156l.04-.236a1.576,1.576,0,0,0-.869.1c-.158-.07.025-.21.159-.217.077-.234-.346-.034-.375.058-.225-.11-.112-.317-.137-.631-.006-.083-.1-.128-.1-.139,0-.084.146-.107.157-.217,0-.026-.147-.148-.077-.256.019-.031.306.068.256-.078-.009-.236-.442-.172-.275-.534l-.354-.06c-.373.256-.236.379-.259.808a.328.328,0,0,1-.315-.3c-.366.044.245.224.038.494-.46-.055-.648-.3-.609-.712.134.042.215.009.257-.079.062-.179-.275-.086-.336-.178-.093-.141.449-.46-.176-.395.186-.428.1-.554.259-.808.24.111.576.516.71.12.154.064.048.313.037.493.31-.053.355-.478.791-.352l.081-.473c.439.18.469-.218.769-.235-.065-.269-.513.142-.848-.022.084-.094.443-.458.159-.217-.275-.123.039-.608.317-.433.116-.117-.084-.237-.079-.257.022-.093.31-.074.277-.2s-.168-.145-.334-.178c.023-.261.428.017.611-.019a.849.849,0,0,0,.3-.314c.444-.01,1.02.167,1.243-.154.314-.233-.151.294-.1.591.419-.176.44-.064.868-.1.328-.075.513-.353.908-.333-.07.293.12.4.275.534.1-.007.138-.1.256-.079.122-.363-.142-.454.022-.848.09.145.431.111.3.415.133-.107.443.038.416-.294.028-.176-.143-.038-.119-.02a.573.573,0,0,1,.023-.848c.268.079.217.361.038.493.349.15.282-.286.631-.137-.016.116.13.117.217.159-.233.441.385.36.018.612.6-.174.567.557,1.281.339a.786.786,0,0,1,.218-.572c.284.31.507.015.809.259a7.463,7.463,0,0,1,.848.022c-.069.206.071.262.1.138.318.107-.058.373-.277.2.094.176.041.456.136.632a.327.327,0,0,1,.473.08.122.122,0,0,0,.04-.237c.155-.221.5-.178.868-.1-.077.057-.09.142-.158.217a1.02,1.02,0,0,0-.178.335c-.025.056-.143.115-.139.1-.067.271.191.517-.238.69a.983.983,0,0,1,.234.77c.433.122.711.023.79-.353.4.117.1.345.571.219-.166.43.049.59-.042.966.08.066.264-.379.2-.453-.135-.155.009-.036.02-.118.014-.11-.185-.675.141-.828.148-.008.025.2.078.256.11.123.409.035.453.2.226-.072.286-.378.455-.531.4.108.614.389.868-.1.136.043.064.233.059.375,0,.214.737.755.808.259.4-.039.095.418.413.435.241-.113.014-.592.257-.077.34-.054-.279-.274-.019-.612.079.118.312.125.315.3a.328.328,0,0,0,.177.4c-.043.135-.233.063-.376.057-.092.239.028.328.038.494.116.016.117-.129.159-.216.383,0,.418.336.71.12.019-.222-.389-.141-.433-.317.189-.125.2-.494.259-.808a.331.331,0,0,1,.176.395c.364-.041-.1-.324.1-.591.452.244.418-.194.751-.117l-.1.592c-.251-.11-.207.2-.395.176,0,.283.316.031.474.08-.009,0,0,.2.1.139.255-.08.539-.119.671-.373a.744.744,0,0,0,.591.1.566.566,0,0,1,.059.375c.284.016.161-.511-.039-.493.007-.189.281.007.376-.058.113-.078.042-.434.2-.453a.855.855,0,0,1,.176.395c.385-.019.208-.29.218-.572.188.26.3.064.592.1.174.119-.125.574.275.533-.035.322-.209.153-.08.473.122.3.164.128.432.317.029.02-.068.216-.04.237.116.083.1-.1.139-.1.166-.015.26.576.354.06.386.142.55.443,1.143.437a1.023,1.023,0,0,1,0-.73c.305.187.633.3.653-.254.337-.032.2.275.432.317.312.121.173-.309.317-.434.04-.033.19.064.237.041.238-.114.4-.5.594-.63.268.122-.143.725.1.868.428.183.051-.364.2-.453.029-.017.312.639.356.06.252.179.321.029.551.338-.255.267.065.437-.219.571.022.184.159-.021.355.06-.1.243.13.254.315.3-.033.2-.067.394-.1.592.576.285.038-.343.316-.433.169-.055.013.338.058.374.206.167.252-.17.416-.294.085-.065.321.054.276-.2.261.023.361.161.295.416.379-.08.687.187,1.007-.2.216.089.254.306.551.337a.384.384,0,0,1-.612.018.328.328,0,0,0,.177.395c.265-.18.13-.2.494-.038a.33.33,0,0,0,.3-.315c.46.109.793.246.826.87.222.087.265-.509-.057-.374.312-.531.307.308.669.357.1-.419-.282-.494-.215-.889.3-.017.166.251.571.219.187-.014.17-.075.593.1a1.724,1.724,0,0,0,.571.219c.234.077.034-.346-.059-.375.181-.345.3.186.316.3.226-.069.409-.316.612-.018.184-.022-.022-.159.06-.355.1.135.284.1.473.08s.426-.038.513-.156c.268.08.219.362.038.494.458.157.415-.393.5-.769,0,.056.208.118.216.159.035.182-.146.161-.158.216-.07.313.133.328-.219.572-.087.114.217.118.217.158,0,.145-.244.131-.277.2-.095.188.135.29.038.493-.173.092-.478-.2-.454-.2-.166.015-.318.442-.216-.159-.381.077-.026.553-.12.71-.017.028-.31-.066-.257.078.009.167.28.148.453.2l-.04.237c.156.2.361.368.373.672.216,0-.064-.192.06-.355.061-.081.132.145.1.139.119.021.179-.311.394-.177-.065.186.077.223.058.375.2.073.26-.279.159-.217.36-.221.633.147.791-.352.365.134.4-.16.591.1-.116.228-.567-.016-.652.255.084.151.29.02.294.415.407-.151.055.046.177.395.415-.041.1-.21.219-.572.48.487.053,1.059-.359,1.4.1.5.48.7.153,1.243.135-.056.169-.251.4-.176.021.2-.172.184-.179.335C88.035,20.722,88.339,20.763,88.217,20.987ZM50.855,13.066c.5-.408-.333-.344,0,0Zm2.3-2.775c-.019.071-.041.137-.138.1l-.04.237C53.233,10.859,53.389,10.283,53.151,10.291Zm1.754,1.15c-.014.078-.027.157-.04.236a1.443,1.443,0,0,0-.811.471c.024-.226-.377-.149-.3-.415-.239.076-.335-.421-.473-.08.166.228.488.347.629.593a2.561,2.561,0,0,0,1.047-.431C54.586,11.789,55.321,11.525,54.905,11.441Zm4.459-.461c-.006.073-.006.143.1.138-.026-.293-.065-.577-.373-.672C58.92,10.809,59.452,10.675,59.364,10.98Zm-.768-.5.237.041.04-.237-.237-.04Zm-.08.474c-.134-.06-.192-.677-.433-.317.123.027.067.167-.139.1C57.794,11.207,58.367,11.2,58.516,10.958Zm-1.2-.083a.846.846,0,0,0,.177.395C57.534,11.115,57.414,10.587,57.312,10.875Zm-.531-.455c-.1.382.313.434.315.3C57.1,10.663,56.805,10.486,56.781,10.42Zm.137.632-.06.354c.209.052.3-.07.3-.314Zm.152,1.973-.237-.04-.041.236.237.041Zm2.029.953a.332.332,0,0,0-.4.176A.333.333,0,0,0,59.1,13.978Zm.691-.492c-.44-.229-.362.272-.553.393l.473.081C59.737,13.8,59.764,13.644,59.79,13.486Zm-.093-1.6s.186-.072.158-.216c-.008-.041-.214-.1-.216-.159-.116.235-.344.075-.514.157-.068.032-.021.276-.159.216-.072-.467-.566-.325-.767-.495-.087.269-.208.489-.456.531-.175-.379-.744-.084-1.064-.18a5.208,5.208,0,0,1-.574.51c.008-.179-.268-.156-.453-.2-.089.306.2.347.413.435a.331.331,0,0,0,.176.395.668.668,0,0,1,.554-.393c.092.014.151.168.216.159.037-.005.069-.2.159-.217.109-.023.244.075.355.06-.042.412.264.576.609.712-.1-.726.59-.341,1.027-.312.192-.29-.109-.735.12-.71.155.2.25.447.511.574C60.01,12.347,59.729,12.137,59.7,11.888Zm1.064.181c.042.364.324-.1.592.1.011-.228.178-.238.2-.453-.337.152-.391-.206-.611.018a.122.122,0,0,1-.041.237c.063-.253-.41-.125-.572-.219-.017-.111-.135-.641-.315-.3.135.044.1.209.058.375.638-.106.057.654.492.692C60.88,12.414,60.41,12.129,60.761,12.069Zm.964.772c-.211-.035-.633-.435-.828-.141.331.16-.2.272-.1.592.5.24.581-.484.868-.1Zm.434.317c.358.118.5-.243.179-.335A.568.568,0,0,1,62.159,13.158Zm.454.2-.237-.041-.04.237.237.04Zm1.852.557-.355-.06c-.079.264-.048.45.157.514C64.331,14.214,64.473,14.17,64.465,13.914Zm.359-1.4c.043.106-.318.138-.276.2C64.624,12.818,65.194,12.785,64.824,12.515Zm1.1,1.4c.091-.164.225-.268.317-.433-.236-.075-.178-.359-.414-.435.137.454-.127.278-.238.69A.572.572,0,0,1,65.925,13.918Zm.353.791-.237-.04-.04.237.237.04Zm3.607.977c-.083.177-.39.038-.317.433C69.846,16.294,70.16,15.809,69.885,15.686Zm.995-3c-.038.278-.311,1.25.1.869C70.784,13.372,71.221,12.953,70.88,12.69Zm3.268,2.259c.007.512-.469.027-.493.038-.09.04-.123.376-.2.453a.588.588,0,0,1-.513.156c-.042.377-.037.72.352.79.151-.349-.285-.282-.135-.631.246,0,.355-.184.533-.275.351-.041.278.219.572.219A.493.493,0,0,0,74.148,14.949Zm.418-1.025c-.235.012-.517-.044-.534.275a.559.559,0,0,1,.335.178C74.378,14.149,74.544,14.139,74.566,13.924ZM22.454,71.418c-.07-.019-.136-.042-.1-.139l-.237-.04C21.887,71.5,22.462,71.655,22.454,71.418ZM18.066,87.956c-.078.265-.047.45.157.514C18.3,88.206,18.269,88.02,18.066,87.956Zm1.123.556a.387.387,0,0,0-.375.058c-.082.037-.185.165-.277.2C18.8,89.138,19,88.673,19.189,88.512Zm.678-9.013c-.157-.028-.074-.226-.2-.278.02.246-.7.161-.317.434C19.323,79.319,19.9,79.834,19.867,79.5ZM19.8,81.313c-.007.124-.551.153-.179.335C19.589,81.467,20.133,81.438,19.8,81.313Zm.18-1.065a.33.33,0,0,0,.177.395C20.179,80.455,20.245,80.236,19.982,80.248ZM21.259,75.6c-.063.3-.528.039-.456.532C21.108,76.25,21.488,75.743,21.259,75.6Zm.51,7.755c-.083-.308-.645.081-.395.176C21.408,83.332,21.713,83.517,21.769,83.351Zm1.372-3.784c-.361-.117-.546.013-.553.393C22.971,80.108,23.054,79.835,23.141,79.567Zm.061-7.536c-.131-.18-.414-.231-.493.038C22.89,72.079,23.138,72.185,23.2,72.031Zm.756,4.875c.32.016-.224.644.275.534C24.274,77.224,24.111,76.64,23.958,76.906Zm3.274-13.563a.565.565,0,0,1-.335-.179c.176.42-.531.291-.2.453A2.036,2.036,0,0,0,27.232,63.343Zm2.9-.6c-.22-.177-.595.09-.276.2C29.885,62.78,30.083,62.863,30.134,62.74Zm1.285-7.572-.236-.04-.04.237.235.04Zm.456,5.92c-.071-.019-.137-.042-.1-.139l-.237-.04C31.307,61.169,31.883,61.325,31.875,61.088Zm.336-7c-.219-.13-.19.145-.277.2s-.25-.063-.257.079a.575.575,0,0,1,.336.178C32.077,54.385,32.219,54.341,32.211,54.085Zm3.546-5.119c.009,0-.141.388-.178.335C35.814,49.634,35.951,48.965,35.757,48.966Zm1.288-1.851c-.058-.125.045-.486-.294-.414-.347.381-.264.585-.181,1.064.532.182.241-.424.435-.413.156.028.073.226.2.277C37.392,47.354,37.121,47.28,37.045,47.115Zm.5,3.494c-.119-.02-.124-.12-.217-.158-.02.187-.085.407.177.395C37.521,50.767,37.534,50.688,37.548,50.609Zm.385-3.708c.042-.088.123-.121.257-.078l.04-.236a.571.571,0,0,1-.335-.179C37.885,46.588,37.78,46.837,37.933,46.9Zm.474.081a.33.33,0,0,1-.4.176l-.06.355c.39.255.14-.39.416-.295,0,.141.165.16.334.178C38.837,47.092,38.495,47.126,38.407,46.982Zm.6-2.09c-.12-.02-.125-.12-.217-.158-.02.188-.086.407.177.395Zm.165-2.406c-.211-.164-.045.447.058.375S39.2,42.509,39.17,42.486Zm1.535.991c-.347-.147-.452.047-.729,0a.238.238,0,0,0,.078.257c.071.08-.146.113-.139.1.019-.039-.039-.2-.1-.139a.407.407,0,0,0,.136.632c.124-.254.456-.533.652-.255C40.642,43.772,40.446,43.664,40.705,43.477ZM42.2,39.713c.1-.381-.044-.593-.373-.672-.027.158-.053.316-.08.473A.674.674,0,0,1,42.2,39.713Zm.473.08c-.253-.048-.86.138-.554.393C42.2,39.915,42.526,39.984,42.669,39.793Zm1,2a.331.331,0,0,0,.176.395C43.866,42,43.932,41.776,43.67,41.789Zm.422-2.485c-.292-.067-.571-.119-.633.137C43.75,39.508,44.029,39.56,44.092,39.3Zm3.463-3.916a.675.675,0,0,0,.037.494c.331.075.354-.285.554-.393Zm.218-.571c.032-.15.18-.138.179-.335C47.692,34.249,47.536,34.825,47.773,34.817Zm.1-1.321c.247-.207-.049-.247.2-.454l-.591-.1C47.365,33.3,47.724,33.326,47.876,33.5Zm-.793,1.082c.119.019.125.12.217.158.02-.118.119-.124.159-.216-.119-.019-.125-.119-.217-.158C47.222,34.481,47.123,34.486,47.083,34.578Zm-1.446,2.067a.331.331,0,0,0,.177.395C45.834,36.853,45.9,36.633,45.637,36.645Zm2.15.243c-.273-.4-.808-.606-.9-1.127-.4-.037-.4-.2-.551-.337-.3-.275-.344-.156-.157-.513-.547-.005-.247.338-.377.788-.179.17-.553.131-.652.254-.052.065.007.308-.06.355-.092.066-.371-.131-.375.058.249.222.178.288.572.219.176-.045.094-.452.316-.433-.171.434.535.245.789.377.078.256.118.54.372.672.086-.269.208-.489.456-.531C46.972,37,47.775,37.085,47.787,36.888Zm.279-.926c-.021.746-.276-.126-.4.177.177.082.037.389.433.316C48.146,36.3,48.268,35.6,48.066,35.962Zm.265-3c.188.02.407.085.395-.177l-.236-.04C48.47,32.866,48.37,32.872,48.331,32.964Zm-.024,1.578a.33.33,0,0,0,.176.395C48.5,34.75,48.568,34.53,48.307,34.542Zm.469,1.54c.2-.267-.264-.549.1-.591.157.028.073.226.2.277.248-.167.043-.472-.275-.534-.041.088-.122.121-.256.078A.684.684,0,0,0,48.776,36.082Zm.529,1.186c-.214-.009-.573-.22-.513.156A.529.529,0,0,0,49.305,37.268Zm0,.729c-.079.264-.047.45.156.514A.531.531,0,0,0,49.3,38Zm.964-5.678c0-.143.077-.333-.058-.375-.019.071-.042.137-.139.1.011-.066-.073-.151-.118-.02C50.115,32.079,50.118,32.25,50.267,32.319Zm.246,3.571a.527.527,0,0,0-.157-.513A.283.283,0,0,0,50.513,35.89Zm1.611-4.473c.1.322-.531.291-.2.453.019-.071.041-.137.138-.1-.032.3.395.1.473.08.109.2.065.509.255.651A.687.687,0,0,0,52.124,31.417Zm1.911.932L54.1,32c.118.019.124.119.216.158.012-.275.1-.44.317-.433.012.234.2.34.136.631.9-.034.131-.616.141-.828-.01.194.657-.392.178-.334-.059.259-.51-.035-.729,0C54.354,31.635,53.772,32.018,54.035,32.349Zm-.57-.948c.362.167.4-.119.533-.275-.163-.057-.166-.228-.315-.3A.786.786,0,0,0,53.465,31.4Zm.349,2.25c-.164-.057-.167-.229-.315-.3C53.325,33.754,53.682,34.027,53.814,33.651Zm.9,1.127c-.061-.534-.338-.267-.769-.5a.389.389,0,0,1-.651.255c-.118.362.241.384.393.554.075-.423.027-.424.317-.433-.173,0,.291.634.335.178-.129-.048-.162-.163-.2-.277A.782.782,0,0,1,54.718,34.778Zm.816-2.661c-.419.222-.055.638-.4.906a.854.854,0,0,0-.176-.4c.081.505-.283.383-.456.532.369.049.275.429.788.377.065-.219-.088-.284-.038-.494.264.03.136-.493.239-.689A.122.122,0,0,0,55.534,32.117Zm1.5.5c.167-.27.083-.246.239-.69C56.827,31.756,56.426,32.558,57.032,32.615Zm.292,1.144c-.258-.286-.587-.887-.926-.278.368-.166.523.358.434.317C56.984,33.867,57.281,33.868,57.324,33.759Zm.232-4.95.04-.237-.236-.04-.041.236Zm.048,4.024c-.155.318.114.335.018.612C58.338,33.694,58.206,32.787,57.6,32.833Zm.535-1q-.381-.1-.415.294C58.029,32.259,58,31.918,58.139,31.829Zm.057,1.1c-.084.384.419.136.551.338l.1-.592C58.391,32.621,58.251,32.677,58.2,32.933Zm.416-1.024c-.047.066-.371.406-.08.473C58.671,32.191,58.99,32.083,58.612,31.909Zm.893-1.674c-.318-.155-.335.115-.612.018-.019.412.294.2.018.611.441.06.327-.121.317-.433C59.375,30.442,59.515,30.443,59.505,30.235Zm.632-.136c-.156-.028-.073-.226-.2-.277-.064.153-.206.2-.2.453l.236.04C60,30.2,60.1,30.191,60.137,30.1Zm0,1.46c.239,0,.208.2.314.3C60.592,31.629,60.231,31.272,60.133,31.559Zm.654-.985a.556.556,0,0,1-.335-.179c.116.377-.209.417.135.632.051-.139.145-.05.237.04C60.889,30.848,60.736,30.784,60.787,30.574Zm-.076-.987c.072.006.142.006.137-.1-.325-.243-.415.559-.218.572.063-.18.273-.039.355.06C61.153,29.758,60.72,29.823,60.711,29.587Zm7.753-6.961c.513-.19.5.333.748.614.076-.235.36-.178.435-.413-.124-.051-.251-.243-.078-.257.239,0,.208.2.315.3.113-.292.227-.388-.018-.612-.02.24-.346-.03-.494.038-.068.032-.022.278-.158.217-.184-.043-.042-.317-.315-.3-.157-.025-.143.189-.277.2C68.526,22.42,68.468,22.486,68.464,22.626Zm-3.428,5.139c-.046-.1-.183-.014-.216-.158.012.052.291-.308-.079-.257-.248.087-.043.924-.534,1a.33.33,0,0,0-.316-.3c-.05.743.62.168,1.045.3C64.892,28.194,65.1,27.917,65.036,27.765Zm1.7.044c-.3-.062-.039-.527-.531-.455.034-.371-.358-.44-.631-.594-.133.282-.2.467,0,.731.139-.295.419.066.474.08-.007,0,.255-.2.237.04-.1.011-.155.075-.159.216-.172-.257-.369.083-.572-.218C65.36,28.161,66.718,28.291,66.733,27.809ZM67.98,26.2c.1.32-.43.433-.1.592C68,26.565,68.374,26.351,67.98,26.2Zm.925,1.009c.425-.509-.34-.352,0,0Zm.126-2.9c-.164-.092-.268-.226-.433-.318-.043.137-.036.34-.178.336a.686.686,0,0,1-.235-.771c-.221-.206-.339.107-.513.157a1.634,1.634,0,0,1-.612.018c-.086-.02-.1-.138-.1-.138-.167-.052-.5.211-.473-.081.134-.006.317-.147.158-.217-.239.149-.309.428-.574.512.031-.009-.086-.2-.118-.02.088.041.121.122.078.257-.377-.291-.4.023-.75.116-.141,0-.332-.078-.374.058.087.042.232.043.216.158s-.119.125-.159.217c.309.141.279-.2.514-.156.116.16.395.2.69.238.041-.136.036-.339.178-.335,0,.209.384-.046.434.317-.157-.025-.144.189-.277.2-.12-.02-.126-.12-.217-.159-.147.135-.189.417-.337.551.546.029.444-.4.632-.135a.636.636,0,0,0,.551.336.33.33,0,0,0,.177.395c.2-.27,0-.38.2-.453.153.065.2.207.452.2.059-.161.283-.091.395-.176.042-.137.037-.34.179-.335.331.078.351-.4.611-.018C69.3,24.641,68.575,24.627,69.031,24.305Zm.686,1.7c.064-.139.2-.085.276-.2-.661-.1-.541.236-.711.609.24.111.575.517.709.121C69.817,26.451,69.633,26.185,69.717,26Zm.419-1.755c-.269.492-.688-.316-.967-.042.322.247.539.682,1.005.536C70.184,24.562,70.291,24.313,70.136,24.248Zm.4-2.366a2.387,2.387,0,0,0-.51-.573l-.081.473C70.007,21.863,70.461,22.154,70.537,21.882Zm.485,2.882c-.306-.089-.347.2-.434.413C70.908,25.223,71.2,25,71.022,24.764Zm.353.79c.183.041.141-.33.021-.118-.256.065-.036.527.078.257C71.4,25.674,71.336,25.651,71.375,25.554Zm.917-3.252c-.395.037-.334-.249-.551-.337a.327.327,0,0,1-.395.176c.141-.412-.289-.419-.65-.475-.066.463.441.52.866.634a.856.856,0,0,0,.177.395C71.743,22.311,72.333,22.751,72.292,22.3Zm1.936-.646c.326.244.415-.559.218-.571C74.487,21.436,74.227,21.363,74.228,21.656Zm-.279.927c-.038.007.115.157.216.158.041,0,.123-.191.256-.078a.977.977,0,0,0-.116-.75c-.082.194-.148-.051-.354-.06a2.294,2.294,0,0,1-.594.629c-.177-.082-.038-.389-.433-.316-.247.342.024.729-.357.669.063.267-.116.707.373.672.119-.271,0-.883.279-.926.184.042.041.317.314.3C73.734,22.79,73.8,22.611,73.949,22.583Zm.452.2c-.039.569-.184.2-.374.059.1.32-.431.431-.1.591C74.119,23.25,74.909,23.068,74.4,22.781Zm.639-2.325c.133.405-.522.408-.219.571.044-.135.21-.1.375-.058C75.275,20.705,75.243,20.519,75.04,20.456Zm.749-6.568c-.156-.028-.073-.226-.2-.277-.042.088-.123.121-.257.079C75.211,14.123,75.628,14.114,75.789,13.888Zm-.125,2.17c.089-.217.374-.157.337-.551-.279.011-.644.132-.828-.141-.042.136-.037.339-.178.335.05.5.4.55.056,1.105C75.591,17.03,75.6,16.5,75.664,16.058Zm.537,5.447c-.138-.146-.324-.256-.414-.436.279.046.012-.33-.2-.277a.986.986,0,0,1-.141.828A.983.983,0,0,0,76.2,21.505Zm.813-8.383c-.3-.245-.413.456-.2.454A.679.679,0,0,1,77.014,13.122Zm2.22,3.42c.187.02.407.085.394-.177l-.236-.04C79.372,16.444,79.272,16.45,79.234,16.542Zm-.777,2.424c.009-.214.22-.572-.156-.513C78.222,18.717,78.254,18.9,78.457,18.966Zm-1.271,3.192.236.04c.014-.078.027-.157.041-.236l-.237-.04C77.212,22,77.2,22.079,77.186,22.158Zm.153,1.244c-.338-.427-.432.376,0,0Zm.4-.907c-.518-.065-.251.169-.338.552C77.872,23.145,77.764,22.8,77.737,22.5ZM79.462,19.5c-.3-.032-.336-.248-.552-.338.034.429-.251.375-.395.177-.151.2.288.455-.08.473-.1-.311-.42-.465-.748-.613-.065.219.089.283.037.493.174.05.445.032.454.2a3.152,3.152,0,0,0-.515.886c.315.157.421.464.886.515.042-.087.043-.233.158-.216a.685.685,0,0,0-.234-.77c-.177.044-.095.452-.317.433.02-.119-.072-.157-.078-.257.2-.165.248-.53.455-.531.009,0,.078.232.216.158.09-.048,0-.407.179-.335.05.2-.074.571.315.3C78.77,19.83,79.4,19.817,79.462,19.5Zm1.3-.51c-.432-.146-1.737-.865-1.461,0,.227.075.262-.12.4-.176-.02.188-.086.407.176.395.081-.2-.125-.333.061-.355.546-.007-.178.888.332.909.26-.188-.034-.227.1-.592A.859.859,0,0,0,80.766,18.992ZM68.211,48.508c.023.126-.1.066-.138.1-.226.174.016.508.176.4C68.341,48.936,68.3,48.485,68.211,48.508ZM68.62,50.4c-.36-.209-.24.62.058.376C68.787,50.689,68.663,50.428,68.62,50.4Zm2.093-.861c-.018.071-.041.137-.138.1-.013.079-.026.157-.04.236.294.066.332.289.493-.038C70.79,49.834,70.821,49.639,70.713,49.542Zm.964-5.679c-.338-.311-.665.027-.869.1.052-.018-.163-.2-.137.1-.026.157.189.143.2.277C71.2,44.267,71.573,44.253,71.677,43.863Zm1.594,1.366c-.076-.24.422-.336.081-.474C73.305,44.822,72.98,45.161,73.271,45.229Zm-.55-1.067c-.013.079-.026.157-.04.236-.416-.1-.722-.04-.888.215.09.2.269.011.355.06s.065.35.315.3C72.721,44.678,73.3,44.493,72.721,44.162Zm2.49-8.22c-.272-.084.025-.572-.392-.553-.177.434-.342.854.055,1.1C74.907,36.2,75.123,36.159,75.211,35.942ZM76,35.59c-.3-.246-.414.455-.2.453C75.868,35.889,76.01,35.846,76,35.59Zm.633-.867-.236-.04-.04.237.236.04ZM78.142,32.3c-.363-.168-.3.266-.533.275.005-.073.006-.143-.1-.138-.01.18-.117.429.038.493C77.676,32.623,78.093,32.72,78.142,32.3Zm2.942-.839c-.021-.041-.2-.009-.236-.04-.016-.014-.058-.2-.119-.021.011-.031.184.277.2.277A1.465,1.465,0,0,1,81.084,31.462Zm5.3-11.881a4.828,4.828,0,0,1,.712-.609C86.793,18.99,86.077,19.183,86.386,19.581Zm.2-1.183-.473-.08C86.023,18.7,86.589,18.878,86.587,18.4Zm-1.2-.083.237.041c.033-.15.18-.138.179-.335l-.356-.06Zm-.022.849a.329.329,0,0,1,.4-.177.778.778,0,0,1,.218-.571c-.077,0-.16-.048-.236-.04-.163.015-.07.095-.159.216-.063.086-.122-.026-.02.119.041.058-.258.157-.277.2C85.247,18.981,85.284,19.159,85.361,19.164ZM85.1,15.71c.424-.509-.339-.352,0,0Zm-.071,4c-.032.15-.179.138-.179.335.305.038.451-.147.653-.255-.236-.11-.289-.35-.67-.357C84.654,19.942,85.079,19.383,85.024,19.715Zm-.239.69c.031.081.421.006.335.179-.073-.006-.142-.007-.138.1.328.2.593-.412.337-.551C85.318,20.472,84.707,20.193,84.785,20.405Zm-1.451-2.924c.408-.082.025.4.433.317.076-.227-.12-.262-.176-.395.114-.292.227-.388-.018-.612A1.015,1.015,0,0,1,83.334,17.481ZM81.87,18.937l.041-.237c-.012-.1.035-.234-.079-.257C81.823,18.623,81.716,18.873,81.87,18.937Zm-.435.413c-.008.282.035.53.255.652.027-.158.053-.316.08-.474A.572.572,0,0,1,81.435,19.35Zm-.2,1.913c-.228-.012-.238-.178-.453-.2-.011.147-.012.286.2.277-.011.147-.012.286.2.276Zm.153,8.424c.013-.079.027-.158.04-.237C81.568,28.808,81.048,29.654,81.385,29.687Zm.081-7.654c-.141.337-.241.559-.12.709A.442.442,0,0,0,81.466,22.033Zm.241-1.42c.03-.059.4-.107.158-.217-.018.071-.041.137-.138.1a.853.853,0,0,0-.176-.4c.074.544-.5.174-.475.65.293,0,.22.26.571.219C81.847,20.87,81.659,20.709,81.707,20.613Zm.588,8.011c.02-.071.042-.137.14-.1a.563.563,0,0,1-.18.335c.237.11.288.351.67.357.064-.154.207-.2.2-.453-.12-.095-.325.092-.375.058-.073-.05,0-.326-.058-.375C82.5,28.276,82.028,28.236,82.3,28.624Zm1.167-7.592c.007-.129.115-.351.081-.473-.019-.062-.289-.027-.217-.159.183.087.3-.611.1-.591-.131.286-.32-.494-.494.038.217.055.006.413.157.513-.314-.052-.668-.159-.848-.022-.019-.431.4-.477.534-.274.132-.3-.18-.176-.315-.3-.07-.062-.05-.264-.2-.277-.093.217.279.571-.2.453-.149.35.287.283.137.632-.037.606-.643.89-.261,1.538.216-.037.085-.563.337-.551,0,.147.119.095.237.04a.571.571,0,0,1-.179.335c.415-.06.4.105.848.022.046-.146.038-.481.2-.454C83.631,21.548,83.454,21.174,83.462,21.032ZM84.415,19a.675.675,0,0,0-.494.038c-.011-.1.037-.234-.077-.256-.058.163-.23.166-.3.314C83.94,19.018,84.045,19.249,84.415,19Zm.547,1.8c-.273-.084-.15-.448-.531-.455C84.237,20.787,84.769,21.246,84.962,20.8Zm.719,3.652c-.067.291-.406-.034-.473-.081-.083.27-.339.467.018.612C85.256,24.718,86.049,24.793,85.681,24.452Zm-.216-.158c.391-.719-.372-.389,0,0Zm.339-1.282c-.219-.064-.284.089-.493.038.317-.237-.132-.518-.512-.574-.119.4.294.416.373.672C85.317,23.366,85.817,23.436,85.8,23.012Zm.06-.355c-.293-.065-.333-.289-.493.038C85.5,22.876,85.715,22.828,85.864,22.657Zm.753-.846c-.061-.191-.323-.052-.494.038-.054.029-.184-.072-.237-.04-.035.021,0,.294.078.256C86.059,21.808,86.61,22.193,86.617,21.811Zm.535-1c-.062.355-.245-.554-.474-.08.418.084-.317.348.059.375C86.77,20.931,87.511,21.048,87.152,20.806Zm.3-2.5c-.405-.595-.142.4-.473-.081-.157.425.364.366.511.574A.662.662,0,0,0,87.455,18.3Zm-1.023-1.147-.04.236A.121.121,0,0,0,86.432,17.155ZM22.4,70.313c.029-.357.567-.5.12-.71-.317.108.152.393-.2.453,0-.141-.165-.16-.336-.179C21.9,70.183,22.181,70.224,22.4,70.313ZM88.024,19.25a.559.559,0,0,1-.178.335c.291.069.4-.123.632-.136-.012.065.073.151.118.02-.139-.049-.051-.144.04-.236C88.359,19.136,88.342,19.405,88.024,19.25Zm-4.066,7.465c.117.3-.38.394-.08.474.019-.072.041-.138.138-.1-.01.18-.116.429.038.493.038-.142.084-.274.278-.2C84.449,26.991,84.41,26.707,83.958,26.715Zm1.764-9.681c.008-.123.551-.153.179-.335C85.936,16.881,85.391,16.91,85.722,17.034ZM66.329,50.988c-.232.478.34.384.374.672a.444.444,0,0,0-.121.71c.049-.138.143-.05.237.041C66.771,51.855,66.906,51.17,66.329,50.988Zm1.458-26.529c-.243-.3-.085-.252-.354-.061a.247.247,0,0,1-.355-.06c.076.24-.422.336-.08.473.077-.452.286-.065.493-.037-.035-.005.095-.094.139-.1.113-.014.24.068.354.061C68.1,24.508,67.866,24.555,67.787,24.459ZM66.5,11.948c.176-.193.056.289.473.08-.212.3.4.485.078.256-.124-.41.129-.668.594-.629-.108-.495.349-.193.435-.413-.156-.028-.073-.226-.2-.277a2.076,2.076,0,0,1-.534.275c.091-.165.226-.269.317-.433a.543.543,0,0,1-.69-.239c-.085.417-.244.73-.614.748A.588.588,0,0,0,66.5,11.948Zm-.331-1.639c-.188.046-.245.1-.158.217.247.348-.349.469.018.611.179-.151.544-.273.336-.551.143,0,.333.077.376-.058a1.085,1.085,0,0,1-.394-.554c.067.012.151-.073.02-.118-.073.238-.528-.061-.533.275C65.973,10.172,66.177,10.168,66.172,10.309Zm-.6,2.089c.5.251.262-.9.081-.473C65.954,12.005,65.458,12.1,65.574,12.4ZM64.28,9.988c.267.189-.319.406.017.611a1.156,1.156,0,0,0,.16-.946c-.416.209-.3-.273-.472-.08C63.9,9.839,64.3,9.762,64.28,9.988Zm-.554.393c-.351.06.118.345-.2.453.219.065.284-.089.493-.038.065-.219-.089-.284-.037-.493-.371.077-.344-.642-.552-.337C63.532,10.1,63.631,10.24,63.726,10.381Zm-11.4,26.3c.069.46-.441.185-.277.2-.326-.021-.73.087-.594.629.112.138.345-.189.534-.274.134-.06.051-.14.159-.217.029-.02.219.068.237.041C52.448,36.954,52.414,36.7,52.325,36.685Zm2.39-21.26c.162-.27-.465-.482-.433-.317C54.517,15.149,54.378,15.456,54.715,15.425Zm.492-6.489c.119.021.158-.072.257-.078-.011.146-.012.286.2.276l.061-.355C55.357,8.514,54.929,9.211,55.207,8.936Zm-2.763.505c-.011.146-.012.286.2.276.254-.171.032-.371-.156-.513-.01.279-.364.073-.416.295C52.3,9.78,52.205,9.491,52.444,9.441ZM35.979,54.116c.213.14.2-.157.277-.2.044-.023.2.073.236.04.1-.1.143-.36.06-.356C36.426,53.866,36.106,53.855,35.979,54.116Zm27.2-44.072c-.011.147-.013.286.2.277a1.537,1.537,0,0,1,.063-1.085c-.389-.255-.14.39-.415.295-.01-.1-.076-.154-.217-.159,0,.293-.259.221-.218.571C62.875,10.006,62.912,10.228,63.175,10.044Z"/></svg>